<mxfile host="app.diagrams.net" modified="2022-09-29T02:12:21.191Z" agent="5.0 (Macintosh; Intel Mac OS X 10_15_7) AppleWebKit/537.36 (KHTML, like Gecko) Chrome/105.0.0.0 Safari/537.36" etag="clPuPLdgG35mu0DWpMMn" version="20.3.6" type="github">
  <diagram id="0yeGhkU0BCRLfgKVZKM0" name="Page-1">
    <mxGraphModel dx="946" dy="569" grid="1" gridSize="10" guides="1" tooltips="1" connect="1" arrows="1" fold="1" page="1" pageScale="1" pageWidth="827" pageHeight="1169" math="0" shadow="0">
      <root>
        <mxCell id="0" />
        <mxCell id="1" parent="0" />
        <mxCell id="aareKpzMPu_53dCy5lP9-1" value="&lt;font color=&quot;#3333ff&quot;&gt;JS Object&lt;/font&gt;" style="ellipse;whiteSpace=wrap;html=1;aspect=fixed;" vertex="1" parent="1">
          <mxGeometry x="100" y="260" width="80" height="80" as="geometry" />
        </mxCell>
        <mxCell id="aareKpzMPu_53dCy5lP9-2" value="&lt;ul style=&quot;box-sizing: inherit; color: rgb(0, 0, 0); font-family: Verdana, sans-serif; font-size: 15px; text-align: start; background-color: rgb(255, 255, 255);&quot;&gt;&lt;li style=&quot;box-sizing: inherit;&quot;&gt;&lt;code style=&quot;box-sizing: inherit; font-family: Consolas, Menlo, &amp;quot;courier new&amp;quot;, monospace; font-size: 15.75px; color: crimson; background-color: rgba(222, 222, 222, 0.3); padding-left: 4px; padding-right: 4px;&quot; class=&quot;w3-codespan&quot;&gt;string&lt;/code&gt;&lt;/li&gt;&lt;li style=&quot;box-sizing: inherit;&quot;&gt;&lt;code style=&quot;box-sizing: inherit; font-family: Consolas, Menlo, &amp;quot;courier new&amp;quot;, monospace; font-size: 15.75px; color: crimson; background-color: rgba(222, 222, 222, 0.3); padding-left: 4px; padding-right: 4px;&quot; class=&quot;w3-codespan&quot;&gt;number&lt;/code&gt;&lt;/li&gt;&lt;/ul&gt;" style="whiteSpace=wrap;html=1;aspect=fixed;fontColor=#3333FF;" vertex="1" parent="1">
          <mxGeometry x="270" y="10" width="80" height="80" as="geometry" />
        </mxCell>
        <mxCell id="aareKpzMPu_53dCy5lP9-3" value="&lt;span style=&quot;color: rgb(0, 0, 0); font-family: Verdana, sans-serif; font-size: 15px; text-align: start;&quot;&gt;primitive data types&lt;/span&gt;" style="endArrow=classic;html=1;rounded=0;fontColor=#3333FF;entryX=-0.025;entryY=0.875;entryDx=0;entryDy=0;entryPerimeter=0;" edge="1" parent="1" source="aareKpzMPu_53dCy5lP9-1" target="aareKpzMPu_53dCy5lP9-2">
          <mxGeometry width="50" height="50" relative="1" as="geometry">
            <mxPoint x="330" y="190" as="sourcePoint" />
            <mxPoint x="380" y="140" as="targetPoint" />
          </mxGeometry>
        </mxCell>
      </root>
    </mxGraphModel>
  </diagram>
</mxfile>
